<!DOCTYPE svg PUBLIC "-//W3C//DTD SVG 1.1//EN" "http://www.w3.org/Graphics/SVG/1.1/DTD/svg11.dtd">
<!-- Uploaded to: SVG Repo, www.svgrepo.com, Transformed by: SVG Repo Mixer Tools -->
<svg height="800px" width="800px" version="1.1" id="_x32_" xmlns="http://www.w3.org/2000/svg" xmlns:xlink="http://www.w3.org/1999/xlink" viewBox="0 0 512 512" xml:space="preserve" fill="#4EA72E" stroke="#4EA72E">
<g id="SVGRepo_bgCarrier" stroke-width="0"/>
<g id="SVGRepo_tracerCarrier" stroke-linecap="round" stroke-linejoin="round"/>
<g id="SVGRepo_iconCarrier"> <style type="text/css"> .st0{fill:#4EA72E;} </style> <g> <path class="st0" d="M101.095,73.069c-6.169-0.008-11.617-2.46-15.671-6.498c-4.038-4.062-6.49-9.511-6.498-15.68 c0.008-6.17,2.46-11.617,6.49-15.68c4.062-4.03,9.51-6.481,15.679-6.497l346.336,0.007V0.007L101.095,0 C72.99,0.016,50.22,22.786,50.211,50.892v410.216C50.22,489.214,72.99,511.984,101.095,512h360.694V73.069H101.095z M433.074,483.285H101.095c-12.242-0.024-22.145-9.927-22.169-22.177V96.64c6.706,3.253,14.205,5.144,22.169,5.144h331.978V483.285 z"/> </g> </g>
</svg>